<svg width="64" height="80" viewBox="0 0 64 80" fill="none" xmlns="http://www.w3.org/2000/svg">
  <g transform="rotate(180 30 32)">
<path d="M46.8736 6.73923C46.0736 6.11843 44.9024 6.24643 44.2624 7.01443L33.3504 20.0832V8.13443C33.3504 7.14883 32.5184 6.34883 31.4944 6.34883C30.4704 6.34883 29.6384 7.14883 29.6384 8.13443V19.776L19.7824 7.06563C19.168 6.27203 18.0032 6.11203 17.184 6.70083C16.3584 7.28963 16.192 8.40963 16.8064 9.20323L29.632 25.76V55.8656C29.632 56.8512 30.464 57.6512 31.488 57.6512C32.512 57.6512 33.344 56.8512 33.344 55.8656V25.7984L47.1552 9.25443C47.8016 8.48003 47.6736 7.36003 46.8736 6.73923Z" fill="#212121"/>
</g>
</svg>
