<svg width="64" height="80" viewBox="0 0 64 80" fill="none" xmlns="http://www.w3.org/2000/svg">
<path d="M21.3569 57.568C22.3809 57.568 23.2129 56.768 23.2129 55.7824V29.2416L40.8833 39.5648C41.1841 39.744 41.5169 39.8272 41.8497 39.8272C42.4769 39.8272 43.0913 39.52 43.4433 38.9696C43.9745 38.1248 43.6993 37.024 42.8225 36.512L23.2193 25.056V11.296L41.7281 21.4016C42.6177 21.888 43.7569 21.5872 44.2625 20.7296C44.7681 19.872 44.4545 18.7776 43.5649 18.2912L22.2785 6.6688C21.7025 6.3552 20.9985 6.3552 20.4225 6.6816C19.8529 7.0016 19.5009 7.59041 19.5009 8.22401V55.7824C19.5009 56.768 20.3329 57.568 21.3569 57.568Z" fill="#212121"/>
</svg>
