<svg width="64" height="80" viewBox="0 0 64 80" fill="none" xmlns="http://www.w3.org/2000/svg">
<path d="M43.1807 43.104L25.1711 31.9488L42.6751 20.3328C43.1999 19.9808 43.5071 19.3984 43.4751 18.784C43.4495 18.1696 43.0911 17.6128 42.5343 17.3056L22.7391 6.48959C22.1631 6.17599 21.4591 6.17599 20.8831 6.49599C20.3135 6.81599 19.9615 7.40479 19.9615 8.03839V55.9488C19.9615 56.5888 20.3135 57.1776 20.8895 57.4976C21.1775 57.6576 21.4975 57.7344 21.8175 57.7344C22.1375 57.7344 22.4639 57.6512 22.7519 57.4912L43.1039 46.1376C43.6671 45.824 44.0127 45.2544 44.0319 44.6336C44.0511 44.0256 43.7247 43.4368 43.1807 43.104ZM23.6799 11.1168L38.1247 19.008L23.6799 28.5952V11.1168ZM23.6799 52.8512V35.2768L38.6111 44.5248L23.6799 52.8512Z" fill="#212121"/>
</svg>
