<svg width="64" height="80" viewBox="0 0 64 80" fill="none" xmlns="http://www.w3.org/2000/svg">
<path d="M45.9328 6.40001C45.1072 6.20161 44.2496 6.56001 43.84 7.27681L32 28.256L20.16 7.27681C19.7568 6.56001 18.8928 6.19521 18.0672 6.40001C17.2416 6.59841 16.6656 7.31521 16.6656 8.13441V55.872C16.6656 56.6912 17.2416 57.4016 18.0672 57.6064C18.8928 57.8048 19.7504 57.4464 20.16 56.7296L32 35.744L43.84 56.7168C44.1728 57.3056 44.8064 57.6512 45.472 57.6512C45.6257 57.6512 45.7792 57.632 45.9328 57.5936C46.7584 57.3952 47.3344 56.6784 47.3344 55.8592V8.13441C47.3344 7.31521 46.7584 6.59841 45.9328 6.40001ZM20.384 48.832V15.168L29.8816 32L20.384 48.832ZM43.616 48.832L34.1185 32L43.6224 15.168V48.832H43.616Z" fill="#212121"/>
</svg>
