<svg width="64" height="80" viewBox="0 0 64 80" fill="none" xmlns="http://www.w3.org/2000/svg">
  <g transform="rotate(180 30 32)">
<path d="M20.4736 55.9104V14.624L30.5856 31.072C30.9184 31.616 31.5264 31.9488 32.1856 31.9488C32.192 31.9488 32.192 31.9488 32.1984 31.9488C32.8576 31.9424 33.472 31.6032 33.7984 31.0528L43.5264 14.7776V55.904C43.5264 56.8896 44.3584 57.6896 45.3825 57.6896C46.4065 57.6896 47.2384 56.8896 47.2384 55.904V8.08962C47.2384 7.27682 46.6752 6.57282 45.856 6.36162C45.0432 6.15042 44.1856 6.49602 43.7632 7.20002L32.1664 26.6176L20.2176 7.18082C19.7888 6.48962 18.9376 6.15042 18.1248 6.36802C17.3184 6.57922 16.7552 7.28962 16.7552 8.08962V55.9104C16.7552 56.896 17.5872 57.696 18.6112 57.696C19.6416 57.7024 20.4736 56.9024 20.4736 55.9104Z" fill="#212121"/>
    </g>
</svg>
