<svg width="64" height="80" viewBox="0 0 64 80" fill="none" xmlns="http://www.w3.org/2000/svg">
<path d="M30.6329 6.10613C29.9758 6.41059 29.5586 7.05195 29.5569 7.75046L29.4785 51.665L22.2805 43.4219C21.6244 42.6724 20.4576 42.5868 19.6663 43.2334C18.8811 43.8785 18.7679 45.0125 19.4241 45.762L29.8905 57.7558C30.3449 58.2711 31.0622 58.4855 31.7401 58.3209C31.8085 58.3043 31.8754 58.2815 31.9485 58.2571C32.6799 57.9873 33.1734 57.3077 33.1754 56.5564L33.2629 11.5398L41.2542 17.924C42.0385 18.5502 43.2082 18.4309 43.8653 17.6654C44.5287 16.8984 44.4261 15.7708 43.648 15.1431L32.6105 6.33063C32.0625 5.89074 31.29 5.80168 30.6329 6.10613Z" fill="#212121"/>
</svg>
