<svg width="64" height="80" viewBox="0 0 64 80" fill="none" xmlns="http://www.w3.org/2000/svg">
  <g transform="rotate(180 30 32)">
<path d="M46.2911 9.60638C47.1359 9.04958 47.3535 7.93598 46.7775 7.12318C46.1951 6.31038 45.0431 6.09918 44.1919 6.65598L20.6143 22.176V8.22398C20.6143 7.23838 19.7823 6.43838 18.7583 6.43838C17.7343 6.43838 16.9023 7.23838 16.9023 8.22398V25.5744V25.5808V55.872C16.9023 56.8576 17.7343 57.6576 18.7583 57.6576C19.7823 57.6576 20.6143 56.8576 20.6143 55.872V39.6352L46.2975 22.5664C47.1423 22.0032 47.3535 20.8896 46.7711 20.0768C46.1887 19.264 45.0303 19.0592 44.1855 19.6224L20.6143 35.2896V26.5088L46.2911 9.60638Z" fill="#212121"/>
</g>
</svg>
