<svg width="64" height="80" viewBox="0 0 64 80" fill="none" xmlns="http://www.w3.org/2000/svg">
<path d="M17.6832 57.4848C17.9648 57.632 18.2656 57.7024 18.5664 57.7024C19.2256 57.7024 19.8656 57.3632 20.2048 56.7616L32.0448 35.6864L43.6992 56.576C44.032 57.1776 44.6784 57.5168 45.3376 57.5168C45.632 57.5168 45.9328 57.4464 46.2144 57.3056C47.1168 56.8384 47.456 55.7568 46.976 54.8864L34.1568 31.9168L47.0656 8.9408C47.552 8.0704 47.2192 6.9888 46.3168 6.5152C45.4144 6.048 44.288 6.368 43.7952 7.2384L32.0512 28.1408L20.3968 7.2448C19.9104 6.3744 18.784 6.048 17.8816 6.5152C16.9792 6.9824 16.64 8.064 17.12 8.9344L29.9392 31.9104L16.9344 55.0592C16.448 55.9296 16.7808 57.0176 17.6832 57.4848Z" fill="#212121"/>
</svg>
