<svg width="64" height="80" viewBox="0 0 64 80" fill="none" xmlns="http://www.w3.org/2000/svg">
<path d="M45.3824 6.29761C44.3584 6.29761 43.5264 7.09761 43.5264 8.08321V34.9696L20.4736 18.1952V8.08961C20.4736 7.10401 19.6416 6.30401 18.6176 6.30401C17.5936 6.30401 16.7616 7.10401 16.7616 8.08961V55.9104C16.7616 56.896 17.5936 57.696 18.6176 57.696C19.6416 57.696 20.4736 56.896 20.4736 55.9104V22.6816L43.5264 39.4624V55.9168C43.5264 56.9024 44.3584 57.7024 45.3824 57.7024C46.4064 57.7024 47.2384 56.9024 47.2384 55.9168V8.08961C47.2448 7.09761 46.4128 6.29761 45.3824 6.29761Z" fill="#212121"/>
</svg>
