<svg width="64" height="80" viewBox="0 0 64 80" fill="none" xmlns="http://www.w3.org/2000/svg">
<path d="M29.3567 20.128L17.4399 30.8288C17.0623 31.168 16.8511 31.6416 16.8511 32.1408C16.8511 32.64 17.0688 33.1136 17.4464 33.4464L29.2991 44.0128L17.4464 54.5088C16.6912 55.1744 16.64 56.3072 17.3376 57.0368C17.7024 57.4208 18.2015 57.6128 18.7071 57.6128C19.1551 57.6128 19.6096 57.4592 19.968 57.1392L32.0384 46.4512L44.1216 57.2224C44.48 57.5424 44.9344 57.696 45.3824 57.696C45.8816 57.696 46.3808 57.504 46.7456 57.1264C47.4432 56.4032 47.3983 55.2704 46.6431 54.5984L34.7775 44.0192L46.9183 33.2672C47.3023 32.928 47.52 32.448 47.52 31.9488C47.52 31.4496 47.296 30.9696 46.912 30.6304L34.8415 20.0896L46.6495 9.48479C47.3983 8.81279 47.4431 7.67999 46.7391 6.95679C46.0415 6.23359 44.8639 6.19519 44.1087 6.86719L32.0767 17.6768L19.584 6.76479C18.8224 6.09919 17.6511 6.15679 16.9599 6.88639C16.2687 7.61599 16.3264 8.74879 17.088 9.41439L29.3567 20.128ZM32.1151 22.5408L42.9056 31.968L32.0447 41.5808L21.4399 32.128L32.1151 22.5408Z" fill="#212121"/>
</svg>
