<svg width="64" height="80" viewBox="0 0 64 80" fill="none" xmlns="http://www.w3.org/2000/svg">
<path d="M31.9936 57.6128C32.4928 57.6128 32.992 57.4208 33.3568 57.0368C34.0544 56.3136 34.0096 55.1808 33.2544 54.5088L15.9808 39.1552L33.1264 23.9808C33.8816 23.3152 33.9328 22.1824 33.2352 21.4528C32.5376 20.7232 31.3664 20.6784 30.6112 21.3504L11.9872 37.8368C11.6032 38.176 11.3856 38.6496 11.3856 39.1488C11.3856 39.648 11.6032 40.128 11.9808 40.4608L30.7392 57.1328C31.0912 57.4528 31.5392 57.6128 31.9936 57.6128Z" fill="#212121"/>
<path d="M33.3952 6.86077C32.64 6.19517 31.4624 6.23997 30.7712 6.96317C30.0736 7.69277 30.1248 8.81917 30.88 9.49117L48.0256 24.6656L30.7456 40.0192C29.9904 40.6912 29.9456 41.8176 30.6432 42.5472C31.008 42.9312 31.5072 43.1232 32.0064 43.1232C32.4544 43.1232 32.9088 42.9632 33.2672 42.6496L52.0256 25.9776C52.4096 25.6384 52.6208 25.1648 52.6208 24.6656C52.6208 24.1664 52.4032 23.6928 52.0192 23.3536L33.3952 6.86077Z" fill="#212121"/>
</svg>
