<svg width="64" height="80" viewBox="0 0 64 80" fill="none" xmlns="http://www.w3.org/2000/svg">
  <g transform="rotate(180 30 32)">
<path d="M46.208 6.46402C45.6 6.15682 44.864 6.18882 44.2944 6.56002L32 14.5536L19.7056 6.56002C19.136 6.18882 18.4 6.15042 17.792 6.46402C17.184 6.77122 16.8064 7.37922 16.8064 8.04482V25.3824V25.3888V55.8656C16.8064 56.8512 17.6384 57.6512 18.6624 57.6512C19.6864 57.6512 20.5184 56.8512 20.5184 55.8656V26.336L32 18.8736L43.4816 26.336V55.9552C43.4816 56.9408 44.3136 57.7408 45.3376 57.7408C46.3616 57.7408 47.1936 56.9408 47.1936 55.9552V25.3888V25.3824V8.04482C47.1936 7.37922 46.816 6.77762 46.208 6.46402ZM20.5184 22.016V11.4112L28.6784 16.7168L20.5184 22.016ZM43.4816 22.016L35.3216 16.7104L43.4816 11.4048V22.016Z" fill="#212121"/>
</g>
</svg>
