<svg width="64" height="80" viewBox="0 0 64 80" fill="none" xmlns="http://www.w3.org/2000/svg">
  <g transform="rotate(180 30 32)">
<path d="M30.2336 55.9104C30.2336 56.896 31.0656 57.696 32.0896 57.696C33.1136 57.696 33.9456 56.896 33.9456 55.9104V23.6288L44.2368 32.4032C44.5888 32.704 45.0304 32.8512 45.472 32.8512C45.984 32.8512 46.496 32.6464 46.8608 32.2496C47.5392 31.5136 47.4688 30.3808 46.7008 29.728L33.952 18.848V8.26881C33.952 7.28321 33.12 6.48321 32.096 6.48321C31.072 6.48321 30.24 7.28321 30.24 8.26881V15.68L19.7568 6.75201C18.9888 6.09921 17.8112 6.16321 17.1328 6.90561C16.4544 7.64161 16.5248 8.77441 17.2928 9.42721L30.2336 20.4608V55.9104Z" fill="#212121"/>
    </g>
</svg>
