<svg width="64" height="80" viewBox="0 0 64 80" fill="none" xmlns="http://www.w3.org/2000/svg">
<path d="M17.3312 57.1392C18.1376 57.7472 19.3088 57.6128 19.9424 56.832L32.1344 41.8688L44.0512 56.8128C44.416 57.2736 44.9664 57.5104 45.5296 57.5104C45.9264 57.5104 46.3232 57.3888 46.6624 57.1392C47.4752 56.5376 47.6288 55.4176 47.008 54.6304L34.5024 38.9696L46.8928 23.7632C47.4368 23.0912 47.4176 22.1504 46.848 21.504L34.112 7.11037C33.7664 6.71997 33.2672 6.49597 32.7424 6.48317C32.2112 6.47037 31.7056 6.67517 31.3408 7.04637L17.5872 21.1712C16.9664 21.8112 16.9152 22.784 17.4656 23.4816L29.7984 38.9504L17.0112 54.6304C16.3776 55.4048 16.5248 56.5312 17.3312 57.1392ZM21.376 22.5088L32.6336 10.9504L43.0336 22.7072L32.1664 36.0384L21.376 22.5088Z" fill="#212121"/>
</svg>
