<svg width="64" height="80" viewBox="0 0 64 80" fill="none" xmlns="http://www.w3.org/2000/svg">
  <g transform="rotate(180 30 32)">
<path d="M17.5744 57.376C18.112 57.7024 18.7904 57.7408 19.3664 57.4784L37.7088 49.0752L43.9488 56.9472C44.3136 57.408 44.8705 57.6512 45.4272 57.6512C45.8176 57.6512 46.2144 57.5296 46.5536 57.2864C47.3728 56.6848 47.5264 55.5648 46.9056 54.7776L39.7504 45.7536C39.2192 45.0816 38.2656 44.8576 37.472 45.2224L20.4288 53.0304V10.9504L37.76 18.7776C38.56 19.1424 39.52 18.9056 40.0448 18.2208L46.9248 9.27998C47.5328 8.48638 47.36 7.36638 46.5344 6.77758C45.7088 6.18878 44.544 6.35518 43.936 7.14878L37.9648 14.912L19.36 6.51518C18.784 6.25278 18.112 6.29758 17.5744 6.62398C17.0368 6.95038 16.7104 7.51998 16.7104 8.13438V55.872C16.7104 56.48 17.0368 57.0496 17.5744 57.376Z" fill="#212121"/>
</g>
</svg>
