<svg width="64" height="80" viewBox="0 0 64 80" fill="none" xmlns="http://www.w3.org/2000/svg">
  <g transform="rotate(180 30 32)">
<path d="M24.7168 32.3072L43.0272 20.4288C43.5584 20.0832 43.872 19.4944 43.8464 18.88C43.8208 18.2592 43.4688 17.7024 42.9056 17.3952L22.9248 6.48962C22.3488 6.17602 21.6448 6.18242 21.0688 6.50242C20.4992 6.82242 20.1472 7.41122 20.1472 8.04482V31.904C20.1472 31.9104 20.1472 31.9104 20.1472 31.9168V55.8656C20.1472 56.8512 20.9792 57.6512 22.0032 57.6512C23.0272 57.6512 23.8592 56.8512 23.8592 55.8656V37.0112L40.5312 57.0752C40.896 57.5168 41.44 57.7472 41.984 57.7472C42.3936 57.7472 42.8032 57.6192 43.1424 57.3568C43.9424 56.7424 44.0768 55.616 43.4368 54.8416L24.7168 32.3072ZM23.8656 11.1104L38.464 19.0784L23.8656 28.5504V11.1104Z" fill="#212121"/>
    </g>
</svg>
