<svg width="64" height="80" viewBox="0 0 64 80" fill="none" xmlns="http://www.w3.org/2000/svg">
<path d="M45.3824 30.1248H23.3536L46.6432 9.35682C47.3984 8.68482 47.4432 7.55202 46.7456 6.82882C46.048 6.10562 44.8704 6.06082 44.1216 6.73282L17.3504 30.5984C16.7872 31.0976 16.6016 31.8784 16.8832 32.5632C17.1648 33.248 17.8496 33.696 18.6112 33.696H40.6656L17.3504 54.6496C16.6016 55.3216 16.5632 56.4544 17.2608 57.1776C17.6256 57.5552 18.1248 57.7472 18.6176 57.7472C19.072 57.7472 19.5264 57.5872 19.8848 57.2672L46.6496 33.216C47.2064 32.7168 47.392 31.936 47.1104 31.2512C46.8352 30.5728 46.144 30.1248 45.3824 30.1248Z" fill="#212121"/>
</svg>
