<svg width="56" height="51" viewBox="0 0 56 51" fill="none" xmlns="http://www.w3.org/2000/svg">
<path d="M47.8559 37.8963C47.6747 36.079 47.3243 34.2049 46.7608 32.3025C44.0502 23.1592 35.7519 16.7466 26.3315 16.3459V9.67145C26.3315 8.18676 24.5364 7.44324 23.4866 8.49306L8.4881 23.4916C7.8373 24.1424 7.8373 25.1976 8.4881 25.8484L23.4866 40.8469C24.5364 41.8967 26.3315 41.1532 26.3315 39.6685V31.0985C30.0977 30.7218 34.4457 31.6547 38.622 34.8757C40.9321 36.6574 43.0408 39.0679 44.8974 42.1874C45.7634 43.6424 47.9959 43.0283 47.9959 41.335C47.9963 41.2601 47.9963 41.2601 47.9979 41.1221C48.0088 40.0846 47.9792 39.1327 47.8559 37.8963ZM40.6575 32.2364C35.4588 28.2268 29.9746 27.211 25.2541 27.8715C24.7971 27.9354 24.4603 28.0024 24.2575 28.0536C23.5172 28.2403 22.9984 28.9061 22.9984 29.6695V35.6453L12.0232 24.67L22.9984 13.6948V18.004C22.9984 18.9469 23.78 19.702 24.7224 19.6695C24.7898 19.6672 24.8436 19.666 24.9825 19.6636C33.4801 19.4799 41.1465 25.0905 43.5652 33.2495C43.7864 33.9963 43.9709 34.739 44.1217 35.4749C43.0253 34.2481 41.8687 33.1705 40.6575 32.2364Z" fill="#212121"/>
</svg>
