<svg width="44" height="44" viewBox="0 0 44 44" fill="none" xmlns="http://www.w3.org/2000/svg">
<path d="M29.3333 7.33332H34.8333C35.8058 7.33332 36.7384 7.71963 37.4261 8.40726C38.1137 9.0949 38.5 10.0275 38.5 11V12.8333M29.3333 36.6667H34.8333C35.8058 36.6667 36.7384 36.2803 37.4261 35.5927C38.1137 34.9051 38.5 33.9724 38.5 33V31.1667M16.5018 22H16.5M29.3333 22H38.5M38.5 22L34.8333 18.3333M38.5 22L34.8333 25.6667M8.1125 35.618L19.1125 38.918C19.6601 39.0824 20.2385 39.1164 20.8016 39.0174C21.3647 38.9184 21.8968 38.6891 22.3555 38.3478C22.8142 38.0065 23.1867 37.5627 23.4433 37.0518C23.6999 36.5409 23.8335 35.977 23.8333 35.4053V8.59466C23.8335 8.02293 23.6999 7.4591 23.4433 6.9482C23.1867 6.43729 22.8142 5.99347 22.3555 5.65218C21.8968 5.31089 21.3647 5.08158 20.8016 4.98258C20.2385 4.88358 19.6601 4.91762 19.1125 5.08199L8.1125 8.38199C7.3572 8.60871 6.69513 9.07289 6.22451 9.70566C5.7539 10.3384 5.49983 11.1061 5.5 11.8947V32.1053C5.49983 32.8939 5.7539 33.6615 6.22451 34.2943C6.69513 34.9271 7.3572 35.3913 8.1125 35.618Z" stroke="#212121" stroke-width="3" stroke-linecap="round" stroke-linejoin="round"/>
</svg>
