<svg width="32" height="29" viewBox="0 0 32 29" fill="none" xmlns="http://www.w3.org/2000/svg">
<path d="M27.9135 21.9368C27.8048 20.8464 27.5945 19.7219 27.2564 18.5805C25.6301 13.0946 20.6511 9.24698 14.9989 9.00659V5.0019C14.9989 4.11108 13.9218 3.66497 13.2919 4.29486L4.29286 13.2939C3.90238 13.6844 3.90238 14.3175 4.29286 14.708L13.2919 23.7071C13.9218 24.337 14.9989 23.8909 14.9989 23.0001V17.8581C17.2586 17.6321 19.8674 18.1918 22.3732 20.1244C23.7592 21.1934 25.0245 22.6397 26.1384 24.5114C26.658 25.3845 27.9975 25.016 27.9975 24C27.9978 23.9551 27.9978 23.9551 27.9987 23.8723C28.0053 23.2498 27.9875 22.6786 27.9135 21.9368ZM23.5945 18.5408C20.4752 16.1351 17.1848 15.5256 14.3524 15.9219C14.0782 15.9603 13.8761 16.0005 13.7545 16.0312C13.3103 16.1432 12.9991 16.5427 12.9991 17.0007V20.5862L6.41392 14.001L12.9991 7.4159V10.0014C12.9991 10.5671 13.468 11.0202 14.0334 11.0007C14.0739 10.9993 14.1061 10.9986 14.1895 10.9972C19.2881 10.887 23.8879 14.2533 25.3391 19.1487C25.4718 19.5968 25.5825 20.0424 25.673 20.4839C25.0151 19.7479 24.3212 19.1013 23.5945 18.5408Z" fill="#212121"/>
</svg>
