<svg width="32" height="32" viewBox="0 0 32 32" fill="none" xmlns="http://www.w3.org/2000/svg">
<path d="M6 18.9588V13.0412C6 12.4662 6.44772 12 7 12H10.5858C10.851 12 11.1054 11.8903 11.2929 11.695L14.2929 8.30706C14.9229 7.65112 16 8.11568 16 9.04332V22.9567C16 23.8908 14.91 24.3524 14.2839 23.6834L11.2944 20.3145C11.1061 20.1134 10.8479 20 10.5782 20H7C6.44772 20 6 19.5338 6 18.9588Z" stroke="#212121" stroke-width="2" stroke-linecap="round" stroke-linejoin="round"/>
<path d="M20 12.5C21.3333 14.2778 21.3333 17.7222 20 19.5" stroke="#212121" stroke-width="2" stroke-linecap="round" stroke-linejoin="round"/>
<path d="M23 9C26.9879 12.8084 27.0121 19.2171 23 23" stroke="#212121" stroke-width="2" stroke-linecap="round" stroke-linejoin="round"/>
</svg>
